<svg width="200" height="200" viewBox="0 0 200 200" xmlns="http://www.w3.org/2000/svg">
    <rect x="70" y="90" width="60" height="70" rx="10" fill="#bdc3c7" />
    <rect x="80" y="100" width="40" height="30" rx="5" fill="#ecf0f1" />

    <rect x="75" y="45" width="50" height="40" rx="15" fill="#95a5a6" />
    <circle cx="85" cy="65" r="5" fill="#2c3e50" />
    <circle cx="115" cy="65" r="5" fill="#2c3e50" />
    <rect x="90" y="75" width="20" height="2" fill="#2c3e50" />

    <rect x="50" y="100" width="20" height="8" rx="4" fill="#7f8c8d" />
    <rect x="130" y="100" width="20" height="8" rx="4" fill="#7f8c8d" />

    <g transform="translate(145, 80)">
        <rect x="0" y="0" width="35" height="35" rx="2" fill="#2c3e50" />
        <rect x="7" y="2" width="21" height="12" fill="#bdc3c7" />
        <rect x="22" y="4" width="4" height="8" fill="#7f8c8d" />
        <rect x="5" y="20" width="25" height="12" fill="#ecf0f1" />
        <line x1="8" y1="24" x2="27" y2="24" stroke="#bdc3c7" stroke-width="1" />
        <line x1="8" y1="28" x2="27" y2="28" stroke="#bdc3c7" stroke-width="1" />
    </g>

    <rect x="80" y="160" width="12" height="20" fill="#7f8c8d" />
    <rect x="108" y="160" width="12" height="20" fill="#7f8c8d" />
    <rect x="75" y="180" width="20" height="10" rx="5" fill="#95a5a6" />
    <rect x="105" y="180" width="20" height="10" rx="5" fill="#95a5a6" />
</svg>